<svg xmlns="http://www.w3.org/2000/svg" version="1.1" xmlns:xlink="http://www.w3.org/1999/xlink" width="1500" height="155" viewBox="0 0 1500 155"><svg xml:space="preserve" width="1500" height="155" data-version="2" data-id="lg_r2DlKJSupBIf0EEeyl" viewBox="0 0 568 155" x="0" y="0"><rect width="100%" height="100%" fill="transparent"></rect><circle r="59.32" fill="#00e0ff" transform="translate(81.52 77.5)scale(1.2791)"></circle><path fill="#00e0ff" d="m192.695 39.49-9.84-1.46v-5.4h40.75q25.2 0 39.23 12.32 13.71 12.12 13.71 33.2 0 15.17-7.05 27.1-6.47 10.98-17.96 17.14-11.17 5.97-24.06 5.97h-44.62v-5.4l9.84-1.46Zm11.74.82v80.43h22.92q15.93 0 26.4-10.03 10.79-10.47 10.79-27.36 0-32.31-22.59-40.31-7.81-2.73-18.67-2.73Z"></path><rect width="93.69" height="95.73" x="-46.84" y="-47.87" fill="none" rx="0" ry="0" transform="translate(230.2 81)"></rect><path fill="#00e0ff" d="M347.635 125.06q-9.26 4.76-13.39 4.76-9.27 0-9.27-7.87v-1.97q-.89 1.33-4.85 3.87-3.97 2.54-6.19 3.55-5.27 2.42-8 2.42-2.73 0-4.51-.23-1.77-.22-3.68-.85-1.9-.64-3.74-1.78-1.84-1.14-3.3-2.98-3.24-4.07-3.24-10.6 0-9.02 6.41-12.57 4.06-2.35 8.6-2.92 4.54-.57 8.28-.89 7.11-.64 14.22-.76V82.91q0-5.53-1.39-7.37-2.35-3.23-7.3-3.23-11.05 0-21.71 7.17l-3.68-5.52q14.85-9.91 26.59-9.91 10.22 0 14.48 5.65 3.3 4.38 3.3 12.45v33.38q0 4.7 1.77 5.34.64.19 1.65.19 2.54 0 7.81-1.97Zm-22.66-23.49q-18.02.7-23.1 3.62-3.87 2.22-3.87 7.17 0 7.17 5.52 8.82 1.52.45 3.71.45t5.11-.89q2.92-.89 5.4-2.16 4.69-2.28 7.23-4.44Z"></path><rect width="60.17" height="65.77" x="-30.09" y="-32.88" fill="none" rx="0" ry="0" transform="translate(318.05 97.44)"></rect><path fill="#00e0ff" d="M412.705 125.06q-9.27 4.76-13.4 4.76-9.26 0-9.26-7.87v-1.97q-.89 1.33-4.86 3.87t-6.19 3.55q-5.27 2.42-8 2.42-2.73 0-4.5-.23-1.78-.22-3.68-.85-1.91-.64-3.75-1.78-1.84-1.14-3.3-2.98-3.24-4.07-3.24-10.6 0-9.02 6.41-12.57 4.07-2.35 8.6-2.92 4.54-.57 8.29-.89 7.11-.64 14.22-.76V82.91q0-5.53-1.4-7.37-2.35-3.23-7.3-3.23-11.04 0-21.71 7.17l-3.68-5.52q14.85-9.91 26.6-9.91 10.22 0 14.47 5.65 3.3 4.38 3.3 12.45v33.38q0 4.7 1.78 5.34.63.19 1.65.19 2.54 0 7.81-1.97Zm-22.66-23.49q-18.03.7-23.11 3.62-3.87 2.22-3.87 7.17 0 7.17 5.52 8.82 1.53.45 3.72.45 2.18 0 5.1-.89 2.92-.89 5.4-2.16 4.7-2.28 7.24-4.44Z"></path><rect width="60.18" height="65.77" x="-30.09" y="-32.88" fill="none" rx="0" ry="0" transform="translate(383.12 97.44)"></rect><path fill="#00e0ff" d="m435.615 121.63 8.06 1.46v5.27h-26.66v-5.27l8.26-1.46V34.22l-8.26-1.59v-5.14l18.6-4.7Zm28.88-49.45-5.64-1.33v-5.27h25.45v5.27l-9.9 1.46-26.85 20.63 26.66 27.04 4.12 2.09 6.86 1.02v5.27h-17.84l-31.23-33.77Z"></path><rect width="68.18" height="105.57" x="-34.09" y="-52.78" fill="none" rx="0" ry="0" transform="translate(451.6 76.08)"></rect><path fill="#00e0ff" d="M531.535 72.31q-9.59 0-19.81 6.73v42.59l8.06 1.46v5.27h-26.66v-5.27l8.25-1.46V34.22l-8.25-1.59v-5.14l18.6-4.7v49.52q6.35-4.38 12.47-6.32 6.13-1.94 10.45-1.94 4.31 0 7.74 1.21 3.43 1.21 5.84 3.68 5.08 5.14 5.08 14.73v37.96l8.06 1.46v5.27h-26.6v-5.27l8.19-1.46V84.87q0-12.56-11.42-12.56"></path><rect width="68.24" height="105.57" x="-34.12" y="-52.78" fill="none" rx="0" ry="0" transform="translate(527.75 76.08)"></rect><path fill="#fff" d="m57.895 48.44-6.43-.96v-3.53h26.64q16.48 0 25.65 8.06 8.97 7.92 8.97 21.7 0 9.92-4.61 17.72-4.23 7.18-11.74 11.21-7.31 3.9-15.73 3.9h-29.18v-3.53l6.43-.95Zm7.68.54v52.58h14.98q10.42 0 17.27-6.56 7.05-6.84 7.05-17.88 0-21.13-14.77-26.36-5.11-1.78-12.2-1.78Z" paint-order="stroke"></path><rect width="61.26" height="62.59" x="-30.63" y="-31.3" fill="none" rx="0" ry="0" transform="translate(82.6 75.75)"></rect></svg></svg>